<svg width="19" height="14" viewBox="0 0 19 14" fill="none" xmlns="http://www.w3.org/2000/svg">
<path d="M6.10606 7.12893C5.90363 7.12893 5.7095 7.07115 5.56636 6.96831C5.42322 6.86547 5.3428 6.72598 5.3428 6.58054C5.3428 6.4351 5.42322 6.29562 5.56636 6.19278C5.7095 6.08993 5.90363 6.03216 6.10606 6.03216C6.30849 6.03216 6.50263 6.08993 6.64577 6.19278C6.7889 6.29562 6.86932 6.4351 6.86932 6.58054C6.86932 6.72598 6.7889 6.86547 6.64577 6.96831C6.50263 7.07115 6.30849 7.12893 6.10606 7.12893ZM6.10606 9.32246C5.90363 9.32246 5.7095 9.26469 5.56636 9.16184C5.42322 9.059 5.3428 8.91952 5.3428 8.77408C5.3428 8.62864 5.42322 8.48915 5.56636 8.38631C5.7095 8.28347 5.90363 8.22569 6.10606 8.22569C6.30849 8.22569 6.50263 8.28347 6.64577 8.38631C6.7889 8.48915 6.86932 8.62864 6.86932 8.77408C6.86932 8.91952 6.7889 9.059 6.64577 9.16184C6.50263 9.26469 6.30849 9.32246 6.10606 9.32246ZM8.39583 8.77408C8.39583 8.91952 8.47625 9.059 8.61939 9.16184C8.76253 9.26469 8.95666 9.32246 9.15909 9.32246C9.36152 9.32246 9.55566 9.26469 9.6988 9.16184C9.84193 9.059 9.92235 8.91952 9.92235 8.77408C9.92235 8.62864 9.84193 8.48915 9.6988 8.38631C9.55566 8.28347 9.36152 8.22569 9.15909 8.22569C8.95666 8.22569 8.76253 8.28347 8.61939 8.38631C8.47625 8.48915 8.39583 8.62864 8.39583 8.77408ZM12.2121 9.32246C12.0097 9.32246 11.8156 9.26469 11.6724 9.16184C11.5293 9.059 11.4489 8.91952 11.4489 8.77408C11.4489 8.62864 11.5293 8.48915 11.6724 8.38631C11.8156 8.28347 12.0097 8.22569 12.2121 8.22569C12.4145 8.22569 12.6087 8.28347 12.7518 8.38631C12.895 8.48915 12.9754 8.62864 12.9754 8.77408C12.9754 8.91952 12.895 9.059 12.7518 9.16184C12.6087 9.26469 12.4145 9.32246 12.2121 9.32246ZM8.39583 6.58054C8.39583 6.72598 8.47625 6.86547 8.61939 6.96831C8.76253 7.07115 8.95666 7.12893 9.15909 7.12893C9.36152 7.12893 9.55566 7.07115 9.6988 6.96831C9.84193 6.86547 9.92235 6.72598 9.92235 6.58054C9.92235 6.4351 9.84193 6.29562 9.6988 6.19278C9.55566 6.08993 9.36152 6.03216 9.15909 6.03216C8.95666 6.03216 8.76253 6.08993 8.61939 6.19278C8.47625 6.29562 8.39583 6.4351 8.39583 6.58054ZM12.2121 7.12893C12.0097 7.12893 11.8156 7.07115 11.6724 6.96831C11.5293 6.86547 11.4489 6.72598 11.4489 6.58054C11.4489 6.4351 11.5293 6.29562 11.6724 6.19278C11.8156 6.08993 12.0097 6.03216 12.2121 6.03216C12.4145 6.03216 12.6087 6.08993 12.7518 6.19278C12.895 6.29562 12.9754 6.4351 12.9754 6.58054C12.9754 6.72598 12.895 6.86547 12.7518 6.96831C12.6087 7.07115 12.4145 7.12893 12.2121 7.12893ZM6.10606 3.83862C5.90363 3.83862 5.7095 3.8964 5.56636 3.99924C5.42322 4.10208 5.3428 4.24157 5.3428 4.38701C5.3428 4.53245 5.42322 4.67193 5.56636 4.77477C5.7095 4.87761 5.90363 4.93539 6.10606 4.93539H12.2121C12.4145 4.93539 12.6087 4.87761 12.7518 4.77477C12.895 4.67193 12.9754 4.53245 12.9754 4.38701C12.9754 4.24157 12.895 4.10208 12.7518 3.99924C12.6087 3.8964 12.4145 3.83862 12.2121 3.83862H6.10606Z" fill="#A7A7A7"/>
<path fill-rule="evenodd" clip-rule="evenodd" d="M4.57954 1.64514C3.97226 1.64514 3.38985 1.81847 2.96043 2.127C2.53102 2.43552 2.28977 2.85397 2.28977 3.29029V9.8709C2.28977 10.3072 2.53102 10.7257 2.96043 11.0342C3.38985 11.3427 3.97226 11.516 4.57954 11.516H13.7386C14.3459 11.516 14.9283 11.3427 15.3577 11.0342C15.7872 10.7257 16.0284 10.3072 16.0284 9.8709V3.29029C16.0284 2.85397 15.7872 2.43552 15.3577 2.127C14.9283 1.81847 14.3459 1.64514 13.7386 1.64514H4.57954ZM13.7386 2.74191H4.57954C4.37712 2.74191 4.18298 2.79969 4.03984 2.90253C3.8967 3.00537 3.81629 3.14485 3.81629 3.29029V9.8709C3.81629 10.0163 3.8967 10.1558 4.03984 10.2587C4.18298 10.3615 4.37712 10.4193 4.57954 10.4193H13.7386C13.9411 10.4193 14.1352 10.3615 14.2783 10.2587C14.4215 10.1558 14.5019 10.0163 14.5019 9.8709V3.29029C14.5019 3.14485 14.4215 3.00537 14.2783 2.90253C14.1352 2.79969 13.9411 2.74191 13.7386 2.74191Z" fill="#A7A7A7"/>
</svg>
