<svg width="71" height="70" viewBox="0 0 71 70" fill="none" xmlns="http://www.w3.org/2000/svg">
<path d="M0.726868 0L7.09484 62.979L35.6871 70L64.3549 62.9545L70.7269 0H0.726868ZM57.494 14.4305L55.3714 35.4095L55.3793 35.525L55.3714 35.784L53.8609 50.449L53.6979 51.7545L35.7269 56.1295L35.711 56.1435L17.7757 51.7405L16.5593 39.613H25.3521L25.9762 45.78L35.7269 48.1075L45.5094 45.7485L46.5429 35.707H26.0954L25.9205 34.0095L25.519 30.0335L25.3123 27.8985H47.326L48.1289 20.0865H14.5877L14.4128 18.389L14.0153 14.4095L13.8047 12.2745H57.7047L57.494 14.4305Z" fill="url(#paint0_linear_4_311)"/>
<defs>
<linearGradient id="paint0_linear_4_311" x1="35.7269" y1="0" x2="35.7269" y2="70" gradientUnits="userSpaceOnUse">
<stop stop-color="#FDFDFD"/>
<stop offset="1" stop-color="white" stop-opacity="0.18"/>
</linearGradient>
</defs>
</svg>
